<svg width="24" height="24" viewBox="0 0 24 24" fill="none" xmlns="http://www.w3.org/2000/svg">
<g clip-path="url(#clip0_2021_6250)">
<path d="M14.4298 18.819C14.3313 18.8194 14.2337 18.8001 14.1427 18.7623C14.0517 18.7246 13.9691 18.6691 13.8998 18.599C13.7604 18.4579 13.6821 18.2675 13.6821 18.069C13.6821 17.8706 13.7604 17.6802 13.8998 17.539L19.4398 11.999L13.8998 6.45904C13.7701 6.31639 13.7002 6.12924 13.7048 5.93645C13.7094 5.74367 13.7881 5.56006 13.9245 5.42377C14.061 5.28747 14.2446 5.20896 14.4374 5.20454C14.6302 5.20012 14.8173 5.27014 14.9598 5.40004L21.0298 11.47C21.1693 11.6112 21.2475 11.8016 21.2475 12C21.2475 12.1985 21.1693 12.3889 21.0298 12.53L14.9598 18.6C14.8904 18.6699 14.8078 18.7252 14.7168 18.7628C14.6258 18.8004 14.5283 18.8195 14.4298 18.819Z" fill="#0B032D"/>
<path d="M20.33 12.75H3.5C3.30149 12.7487 3.11149 12.6693 2.97112 12.5289C2.83075 12.3885 2.75131 12.1985 2.75 12C2.75131 11.8015 2.83075 11.6115 2.97112 11.4711C3.11149 11.3307 3.30149 11.2513 3.5 11.25H20.33C20.5285 11.2513 20.7185 11.3307 20.8589 11.4711C20.9993 11.6115 21.0787 11.8015 21.08 12C21.0787 12.1985 20.9993 12.3885 20.8589 12.5289C20.7185 12.6693 20.5285 12.7487 20.33 12.75Z" fill="#0B032D"/>
</g>
<defs>
<clipPath id="clip0_2021_6250">
<rect width="24" height="24" fill="white"/>
</clipPath>
</defs>
</svg>
