<svg width="21" height="21" viewBox="0 0 21 21" fill="none" xmlns="http://www.w3.org/2000/svg">
<path fill-rule="evenodd" clip-rule="evenodd" d="M17.5297 17.9804C17.4273 17.974 17.3299 17.932 17.2547 17.8612V17.8578L10.5091 11.1152L10.5094 11.1149L17.2554 17.8578V17.8612C17.3304 17.9319 17.4275 17.9738 17.5297 17.9804ZM3.41216 17.999C3.36541 17.9959 3.31938 17.9853 3.27582 17.9677C3.22102 17.9455 3.17124 17.9125 3.12943 17.8707C3.08762 17.8289 3.05463 17.7792 3.03242 17.7244C3.0102 17.6696 2.99921 17.6109 3.00009 17.5519C3.00097 17.4928 3.01372 17.4344 3.03757 17.3804C3.06141 17.3263 3.09588 17.2775 3.13892 17.237L9.8849 10.4907L3.13892 3.74778C3.06016 3.6642 3.01707 3.55323 3.01879 3.43842C3.0205 3.32361 3.0669 3.21398 3.14813 3.13278C3.22936 3.05159 3.33904 3.00522 3.4539 3.0035C3.46526 3.00333 3.47659 3.0036 3.48785 3.00429C3.47637 3.00357 3.46483 3.00328 3.45325 3.00346C3.33839 3.00518 3.22871 3.05155 3.14748 3.13274C3.06625 3.21394 3.01985 3.32356 3.01813 3.43838C3.01642 3.55319 3.05951 3.66416 3.13827 3.74774L9.88425 10.4907L3.13827 17.237C3.09523 17.2775 3.06076 17.3262 3.03692 17.3803C3.01307 17.4344 3.00032 17.4927 2.99944 17.5518C2.99855 17.6109 3.00955 17.6696 3.03176 17.7243C3.05398 17.7791 3.08697 17.8289 3.12878 17.8707C3.17059 17.9125 3.22037 17.9454 3.27517 17.9676C3.31893 17.9854 3.36519 17.996 3.41216 17.999ZM10.509 9.86615L17.2547 3.12013C17.3383 3.0414 17.4494 2.99833 17.5642 3.00005C17.5706 3.00015 17.577 3.00038 17.5833 3.00075C17.5772 3.0004 17.571 3.00018 17.5649 3.00009C17.45 2.99837 17.339 3.04144 17.2554 3.12017L10.5094 9.86649L10.509 9.86615ZM10.5088 11.4684L17.0047 17.9614V17.9692L17.0833 18.0432C17.2143 18.1665 17.3881 18.2339 17.568 18.2312C17.7478 18.2285 17.9195 18.1559 18.0467 18.0288C18.1739 17.9016 18.2466 17.7299 18.2493 17.5501C18.252 17.3702 18.1846 17.1964 18.0612 17.0655L11.4868 10.4907L18.0561 3.92119L18.0612 3.91579C18.1845 3.78488 18.252 3.61108 18.2493 3.43123C18.2466 3.25138 18.1739 3.07967 18.0467 2.95252C17.9195 2.82537 17.7478 2.75277 17.568 2.75008C17.3881 2.74739 17.2142 2.81474 17.0833 2.93802L10.5087 9.51293L3.93958 2.94664L3.93413 2.94151C3.80317 2.81823 3.62934 2.75079 3.44951 2.75348C3.26968 2.75617 3.09795 2.82878 2.97074 2.95593C2.84353 3.08308 2.77086 3.25478 2.76816 3.43463C2.76547 3.61448 2.83289 3.78837 2.95624 3.91927L9.53066 10.4907L2.96387 17.0578C2.89788 17.1207 2.84496 17.196 2.80817 17.2795C2.77082 17.3642 2.75085 17.4555 2.74947 17.5481C2.74808 17.6406 2.7653 17.7325 2.8001 17.8183C2.8349 17.9041 2.88657 17.982 2.95205 18.0475C3.01752 18.1129 3.09547 18.1646 3.18126 18.1993C3.26706 18.2341 3.35896 18.2513 3.45152 18.2499C3.54408 18.2485 3.63542 18.2286 3.72014 18.1913C3.80358 18.1545 3.87893 18.1016 3.94184 18.0357L10.5088 11.4684Z" fill="#0B032D"/>
</svg>
